<svg width="1000" height="254" viewBox="0 0 1000 254" fill="none" xmlns="http://www.w3.org/2000/svg">
<path d="M11.0405 23.3114C11.1009 21.5703 9.70934 20.0637 8.0282 20.5205C6.91686 20.8225 5.85579 21.3069 4.89033 21.9605C3.04711 23.2085 1.64752 25.0093 0.893094 27.1035C0.138668 29.1978 0.0683405 31.4774 0.692238 33.6141C1.31613 35.7509 2.60206 37.6345 4.36485 38.9937C6.12763 40.353 8.27631 41.1177 10.5015 41.1778C12.7266 41.2379 14.9135 40.5902 16.747 39.3281C18.5806 38.066 19.9663 36.2545 20.7046 34.1546C21.0914 33.0546 21.29 31.9053 21.2995 30.7537C21.3138 29.0116 19.5029 28.0489 17.8344 28.55L17.3504 28.6953C15.9493 29.1162 15.2383 30.6819 14.753 32.0621C14.4577 32.9021 13.9034 33.6267 13.17 34.1315C12.4366 34.6364 11.5618 34.8954 10.6718 34.8714C9.78171 34.8473 8.92224 34.5415 8.21713 33.9978C7.51202 33.4541 6.99764 32.7006 6.74809 31.8459C6.49853 30.9912 6.52666 30.0794 6.82843 29.2417C7.1302 28.404 7.69004 27.6837 8.42732 27.1845C9.63877 26.3642 10.9723 25.2785 11.023 23.8164L11.0405 23.3114Z" fill="#64B434"/>
<path d="M19.0586 28.2548C17.3818 27.7823 15.5876 28.776 15.6319 30.5176C15.6611 31.6688 15.8794 32.8146 16.2849 33.9078C17.0591 35.9947 18.4757 37.7822 20.3306 39.0127C22.1856 40.2432 24.3832 40.8533 26.607 40.755C28.8308 40.6568 30.966 39.8554 32.7053 38.4661C34.4445 37.0768 35.6979 35.1715 36.2851 33.0243C36.8723 30.8772 36.7629 28.5991 35.9727 26.5181C35.1825 24.4371 33.7522 22.6606 31.8879 21.4444C30.9113 20.8074 29.8421 20.3413 28.7258 20.0584C27.037 19.6305 25.6715 21.1607 25.7617 22.9005L25.7879 23.4051C25.8637 24.8662 27.2156 25.9289 28.4409 26.7282C29.1867 27.2147 29.7588 27.9253 30.0749 28.7577C30.391 29.5901 30.4347 30.5013 30.1998 31.3602C29.965 32.219 29.4636 32.9812 28.7679 33.5369C28.0722 34.0926 27.2181 34.4132 26.3286 34.4525C25.4391 34.4918 24.56 34.2477 23.818 33.7555C23.0761 33.2633 22.5094 32.5484 22.1998 31.7136C21.6909 30.3419 20.9532 28.7886 19.545 28.3918L19.0586 28.2548Z" fill="#ABEB4C"/>
<path d="M25.0612 22.8218C24.9094 24.5573 26.2199 26.1349 27.9227 25.7671C29.0484 25.524 30.1334 25.0961 31.1319 24.494C33.0382 23.3447 34.5305 21.6199 35.394 19.5683C36.2575 17.5166 36.4475 15.2438 35.9368 13.0772C35.4261 10.9106 34.2409 8.96203 32.552 7.512C30.8631 6.06198 28.7576 5.18536 26.5387 5.00839C24.3198 4.83142 22.1019 5.36322 20.2046 6.52721C18.3072 7.6912 16.8282 9.42733 15.9805 11.4856C15.5365 12.5637 15.2777 13.701 15.2077 14.8505C15.1018 16.5894 16.8596 17.646 18.5521 17.2333L19.0431 17.1136C20.4644 16.767 21.2567 15.2408 21.8138 13.888C22.1529 13.0647 22.7445 12.3703 23.5035 11.9047C24.2624 11.4391 25.1496 11.2263 26.0371 11.2971C26.9247 11.3679 27.7669 11.7186 28.4425 12.2986C29.118 12.8786 29.5921 13.658 29.7964 14.5247C30.0007 15.3913 29.9246 16.3004 29.5793 17.1211C29.2339 17.9418 28.6369 18.6316 27.8744 19.0914C26.6215 19.8468 25.2328 20.8609 25.1053 22.3184L25.0612 22.8218Z" fill="#47932B"/>
<path d="M17.6454 17.6042C19.3332 18.0357 21.1027 16.9986 21.0161 15.2586C20.9588 14.1084 20.7126 12.9683 20.2806 11.8854C19.4558 9.81783 17.9962 8.0654 16.1118 6.88043C14.2274 5.69547 12.0156 5.1391 9.79489 5.29145C7.57414 5.4438 5.45904 6.29701 3.75416 7.72821C2.04928 9.15941 0.842597 11.0947 0.307879 13.2555C-0.226838 15.4163 -0.0620016 17.6911 0.778653 19.7522C1.61931 21.8133 3.0924 23.5545 4.98581 24.7249C5.97755 25.338 7.05781 25.7779 8.18071 26.0336C9.87936 26.4202 11.2073 24.8572 11.0747 23.1201L11.0362 22.6163C10.9249 21.1575 9.54747 20.128 8.30304 19.3588C7.54568 18.8906 6.95644 18.1941 6.62018 17.3697C6.28392 16.5452 6.21798 15.6353 6.43187 14.771C6.64575 13.9067 7.12843 13.1326 7.81038 12.5601C8.49233 11.9876 9.33837 11.6463 10.2267 11.5854C11.115 11.5244 11.9997 11.747 12.7534 12.221C13.5072 12.695 14.091 13.3959 14.421 14.2229C14.9631 15.5818 15.7384 17.1167 17.1558 17.479L17.6454 17.6042Z" fill="#ABEB4C"/>
<path d="M50.0252 32.5401C50.3116 32.5662 50.6371 32.5922 51.0016 32.6183C51.3921 32.6183 51.8478 32.6183 52.3685 32.6183C55.4147 32.6183 57.6668 31.8502 59.1248 30.3141C60.6089 28.778 61.3509 26.656 61.3509 23.9483C61.3509 21.1104 60.6479 18.9624 59.242 17.5044C57.836 16.0464 55.61 15.3174 52.5638 15.3174C52.1472 15.3174 51.7176 15.3304 51.275 15.3564C50.8324 15.3564 50.4158 15.3824 50.0252 15.4345V32.5401ZM67.6386 23.9483C67.6386 26.2915 67.2741 28.3353 66.5451 30.0798C65.8161 31.8242 64.7746 33.2692 63.4208 34.4147C62.0929 35.5603 60.4657 36.4195 58.539 36.9923C56.6123 37.5651 54.4514 37.8515 52.0561 37.8515C50.9625 37.8515 49.6868 37.7994 48.2288 37.6953C46.7708 37.6172 45.3388 37.4349 43.9328 37.1485V10.7871C45.3388 10.5267 46.7968 10.3575 48.3069 10.2794C49.843 10.1753 51.1578 10.1232 52.2513 10.1232C54.5685 10.1232 56.6644 10.3835 58.539 10.9043C60.4396 11.425 62.0669 12.2451 63.4208 13.3647C64.7746 14.4842 65.8161 15.9162 66.5451 17.6606C67.2741 19.405 67.6386 21.5009 67.6386 23.9483ZM91.942 27.1898C91.942 28.804 91.7077 30.288 91.2391 31.6419C90.7704 32.9697 90.0935 34.1153 89.2083 35.0787C88.323 36.016 87.2556 36.745 86.0058 37.2657C84.7821 37.7864 83.4022 38.0468 81.8661 38.0468C80.356 38.0468 78.9761 37.7864 77.7264 37.2657C76.5027 36.745 75.4482 36.016 74.563 35.0787C73.6778 34.1153 72.9878 32.9697 72.4932 31.6419C71.9985 30.288 71.7511 28.804 71.7511 27.1898C71.7511 25.5755 71.9985 24.1045 72.4932 22.7767C73.0139 21.4488 73.7169 20.3163 74.6021 19.379C75.5133 18.4417 76.5808 17.7127 77.8045 17.1919C79.0542 16.6712 80.4081 16.4109 81.8661 16.4109C83.3502 16.4109 84.704 16.6712 85.9277 17.1919C87.1774 17.7127 88.2449 18.4417 89.1301 19.379C90.0154 20.3163 90.7053 21.4488 91.2 22.7767C91.6947 24.1045 91.942 25.5755 91.942 27.1898ZM86.0058 27.1898C86.0058 25.3933 85.6413 23.9873 84.9123 22.9719C84.2093 21.9305 83.1939 21.4098 81.8661 21.4098C80.5383 21.4098 79.5099 21.9305 78.7808 22.9719C78.0518 23.9873 77.6873 25.3933 77.6873 27.1898C77.6873 28.9862 78.0518 30.4182 78.7808 31.4857C79.5099 32.5271 80.5383 33.0479 81.8661 33.0479C83.1939 33.0479 84.2093 32.5271 84.9123 31.4857C85.6413 30.4182 86.0058 28.9862 86.0058 27.1898ZM96.8402 17.6606C97.8296 17.3742 99.1054 17.1138 100.668 16.8795C102.23 16.6192 103.87 16.489 105.588 16.489C107.333 16.489 108.778 16.7233 109.923 17.1919C111.095 17.6346 112.019 18.2724 112.696 19.1056C113.373 19.9387 113.855 20.9281 114.141 22.0737C114.428 23.2193 114.571 24.495 114.571 25.901V37.5H108.752V26.6039C108.752 24.7294 108.504 23.4015 108.01 22.6204C107.515 21.8394 106.591 21.4488 105.237 21.4488C104.82 21.4488 104.378 21.4749 103.909 21.5269C103.44 21.553 103.024 21.592 102.659 21.6441V37.5H96.8402V17.6606ZM120.228 17.6606C121.218 17.3742 122.494 17.1138 124.056 16.8795C125.618 16.6192 127.258 16.489 128.976 16.489C130.721 16.489 132.166 16.7233 133.311 17.1919C134.483 17.6346 135.407 18.2724 136.084 19.1056C136.761 19.9387 137.243 20.9281 137.529 22.0737C137.816 23.2193 137.959 24.495 137.959 25.901V37.5H132.14V26.6039C132.14 24.7294 131.892 23.4015 131.398 22.6204C130.903 21.8394 129.979 21.4488 128.625 21.4488C128.208 21.4488 127.766 21.4749 127.297 21.5269C126.828 21.553 126.412 21.592 126.047 21.6441V37.5H120.228V17.6606ZM142.64 27.385C142.64 25.5625 142.914 23.9743 143.46 22.6204C144.033 21.2405 144.775 20.095 145.686 19.1837C146.598 18.2724 147.639 17.5825 148.811 17.1138C150.008 16.6452 151.232 16.4109 152.482 16.4109C155.398 16.4109 157.702 17.3091 159.394 19.1056C161.087 20.876 161.933 23.4927 161.933 26.9554C161.933 27.2939 161.92 27.6714 161.894 28.088C161.868 28.4785 161.842 28.83 161.816 29.1425H148.615C148.746 30.3401 149.305 31.2904 150.295 31.9934C151.284 32.6964 152.612 33.0479 154.278 33.0479C155.346 33.0479 156.387 32.9567 157.403 32.7745C158.444 32.5662 159.29 32.3188 159.941 32.0324L160.722 36.758C160.41 36.9142 159.993 37.0704 159.472 37.2266C158.952 37.3828 158.366 37.513 157.715 37.6172C157.09 37.7473 156.413 37.8515 155.684 37.9296C154.955 38.0077 154.226 38.0468 153.497 38.0468C151.649 38.0468 150.034 37.7734 148.654 37.2266C147.301 36.6799 146.168 35.9378 145.257 35.0005C144.372 34.0372 143.708 32.9047 143.265 31.6029C142.848 30.3011 142.64 28.8951 142.64 27.385ZM156.309 25.159C156.283 24.6643 156.192 24.1826 156.036 23.714C155.905 23.2453 155.684 22.8287 155.372 22.4642C155.085 22.0997 154.708 21.8003 154.239 21.566C153.797 21.3317 153.237 21.2145 152.56 21.2145C151.909 21.2145 151.349 21.3317 150.881 21.566C150.412 21.7743 150.021 22.0607 149.709 22.4252C149.396 22.7897 149.149 23.2193 148.967 23.714C148.811 24.1826 148.694 24.6643 148.615 25.159H156.309ZM179.194 22.1127C178.673 21.9826 178.061 21.8524 177.358 21.7222C176.656 21.566 175.9 21.4879 175.093 21.4879C174.729 21.4879 174.286 21.5269 173.766 21.605C173.271 21.6571 172.893 21.7222 172.633 21.8003V37.5H166.814V18.0511C167.855 17.6866 169.079 17.3482 170.485 17.0357C171.917 16.6973 173.505 16.528 175.25 16.528C175.562 16.528 175.94 16.5541 176.382 16.6061C176.825 16.6322 177.267 16.6842 177.71 16.7624C178.153 16.8144 178.595 16.8925 179.038 16.9967C179.48 17.0748 179.858 17.1789 180.17 17.3091L179.194 22.1127Z" fill="#47932B"/>
</svg>
